<?xml version="1.0" encoding="UTF-8"?>
<svg id="Capa_1" data-name="Capa 1" xmlns="http://www.w3.org/2000/svg" viewBox="0 0 705.01 629.87">
  <defs>
    <style>
      .cls-1 {
        fill: #7b5018;
      }

      .cls-1, .cls-2 {
        stroke-width: 0px;
      }

      .cls-2 {
        fill: #fff;
      }
    </style>
  </defs>
  <ellipse class="cls-1" cx="385.01" cy="314.93" rx="320" ry="314.93"/>
  <path class="cls-2" d="m374.26,531.6c-35.36,0-64.08-4.84-86.17-14.53-22.09-9.69-39.37-23.23-51.82-40.63-6.42-9.1-12.05-18.98-16.87-29.66-4.82-10.68-8.84-22.54-12.05-35.58-6.02-25.7-9.04-68-9.04-126.91,6.42-8.7,17.97-16.02,34.65-21.95,16.66-5.93,37.16-10.47,61.46-13.64,24.31-3.16,50.93-4.75,79.85-4.75,44.18,0,82.25,3.66,114.19,10.97,31.94,7.32,52.52,17.1,61.78,29.36v11.26c0,3.56.2,7.12.6,10.68l1.2-.59c4.41-2.38,9.94-4.54,16.58-6.53,6.62-1.97,14.36-2.96,23.2-2.96,18.48,0,32.93,5.54,43.39,16.6,10.45,11.08,15.67,27.09,15.67,48.03,0,24.12-11.35,44.78-34.05,61.98-22.71,17.19-53.13,27.57-91.3,31.13-12.86,26.5-31.43,46.07-55.73,58.71-24.31,12.66-56.15,18.98-95.52,18.98Zm-117.51-222.99c-5.63-4.74-8.43-8.9-8.43-12.45,0-7.52,10.85-13.65,32.55-18.39,21.69-4.75,52.82-7.12,93.4-7.12s71.3,2.36,93.41,7.12c21.69,4.74,32.54,10.87,32.54,18.39,0,3.55-2.82,7.71-8.43,12.45,5.62-.8,10.64-1.68,15.07-2.67,4.41-.99,8.43-2.28,12.05-3.86,7.63-2.76,11.45-5.73,11.45-8.89,0-9.1-16.28-16.8-48.82-23.13-16.07-3.16-33.14-5.63-51.22-7.41-18.07-1.78-36.76-2.67-56.04-2.67s-37.76.8-55.44,2.37c-17.68,1.58-34.76,4.15-51.22,7.71-32.94,7.11-49.41,14.83-49.41,23.13,0,3.16,3.81,6.13,11.45,8.89,3.62,1.58,7.72,2.87,12.35,3.86,4.62.99,9.54,1.87,14.76,2.67Zm116.91,202.23c22.9,0,41.48-1.58,55.75-4.75,14.25-3.16,26-7.71,35.25-13.63,9.23-5.94,17.47-12.85,24.7-20.75,5.63-5.94,10.85-13.34,15.67-22.25,4.82-8.89,8.84-19.27,12.05-31.13,6.83-23.72,10.25-58.71,10.25-104.97-22.1,7.12-45.8,12.16-71.11,15.12-25.32,2.97-52.63,4.45-81.96,4.45s-58.36-1.68-84.67-5.04c-26.31-3.35-49.52-8.19-69.6-14.53,0,48.63,3.62,84.22,10.85,106.75,7.23,22.94,16.37,40.43,27.41,52.49,11.05,12.07,24.61,21.45,40.68,28.17,16.87,6.73,41.78,10.09,74.72,10.09Zm-64.47-279.93c3.21-7.5,6.02-14.03,8.43-19.57,2.4-5.53,3.62-11.27,3.62-17.2,0-12.25-7.04-23.72-21.1-34.4-14.06-10.67-21.09-21.35-21.09-32.02s3.11-20.66,9.34-29.95c6.23-9.28,13.15-16.5,20.79-21.65-2.42,3.96-4.93,9.19-7.54,15.72-2.61,6.53-3.91,13.15-3.91,19.87,0,9.89,6.63,21.75,19.89,35.58,13.25,13.45,19.89,25.9,19.89,37.36,0,7.92-1.81,14.93-5.43,21.05-3.6,6.14-11.24,14.53-22.89,25.21Zm66.89,0c3.2-8.31,6.02-15.61,8.43-21.95,2.4-6.32,3.62-12.84,3.62-19.57,0-13.44-7.04-26.48-21.1-39.14-14.45-13.04-21.69-25.1-21.69-36.17,0-12.25,3.21-23.72,9.64-34.4,6.42-10.67,13.46-18.58,21.1-23.72-2.42,4.36-4.93,10.29-7.54,17.79-2.61,7.52-3.91,15.03-3.91,22.54,0,11.07,6.83,24.52,20.49,40.32,13.25,15.42,19.89,29.46,19.89,42.11,0,7.92-1.61,15.23-4.82,21.94-3.22,6.73-11.25,16.81-24.1,30.25Zm-3.62,275.17v-5.92c18.88-4.34,35.25-10.57,49.11-18.68,13.85-8.11,24.59-19.08,32.23-32.92,7.63-13.84,11.65-29.85,12.05-48.05.39-18.17.6-38.34.6-60.49,9.24-.78,18.28-1.98,27.12-3.56,8.84-1.58,16.46-3.75,22.9-6.53,0,31.24-2.11,56.75-6.33,76.51-4.22,19.78-10.75,35.68-19.59,47.74-8.84,12.07-20.49,22.44-34.94,31.13-20.9,12.66-48.62,19.57-83.16,20.75Zm78.94-275.17c3.2-7.5,6.02-14.03,8.43-19.57,2.4-5.53,3.62-11.27,3.62-17.2,0-12.25-7.04-23.72-21.1-34.4-14.06-10.67-21.09-21.35-21.09-32.02s3.1-21.45,9.34-31.14c6.22-9.68,13.15-16.51,20.79-20.46-2.42,3.96-4.93,9.19-7.54,15.72-2.61,6.53-3.91,13.15-3.91,19.87,0,9.89,6.62,21.75,19.89,35.58,13.25,13.45,19.89,25.9,19.89,37.36,0,7.52-1.62,14.33-4.82,20.46-3.22,6.14-11.06,14.74-23.5,25.8Zm86.16,190.37c25.32-2.38,44.49-8.7,57.55-18.98,13.06-10.28,19.59-23.52,19.59-39.73,0-23.72-9.86-35.59-29.53-35.59-16.07,0-27.72,3.56-34.94,10.68,0,8.7-.82,18.98-2.42,30.84-1.61,11.86-3.31,22.83-5.12,32.92-1.8,10.09-3.52,16.71-5.12,19.87Z"/>
</svg>