<?xml version="1.0" encoding="UTF-8"?>
<svg id="Capa_1" data-name="Capa 1" xmlns="http://www.w3.org/2000/svg" viewBox="0 0 417.31 221.61">
  <defs>
    <style>
      .cls-1 {
        fill: #f6f6f6;
        font-family: Signika-Bold, Signika;
        font-size: 23.35px;
        font-variation-settings: 'wght' 700, 'GRAD' 0;
        font-weight: 700;
      }

      .cls-2 {
        fill: #7b5018;
      }

      .cls-2, .cls-3 {
        stroke-width: 0px;
      }

      .cls-3 {
        fill: #fff;
      }
    </style>
  </defs>
  <ellipse class="cls-2" cx="385.31" cy="31.49" rx="32" ry="31.49"/>
  <text class="cls-1" transform="translate(356.71 40.36) scale(1.02 1)"><tspan x="0" y="0">C</tspan></text>
  <text class="cls-1" transform="translate(399.17 40.36) scale(1.02 1)"><tspan x="0" y="0">H</tspan></text>
  <text class="cls-1" transform="translate(376.83 58.15) scale(1.02 1)"><tspan x="0" y="0">A</tspan></text>
  <path class="cls-3" d="m367.67,10.63c2.79,2.46,5.59,4.92,8.38,7.38l1.3,1.06s.79.25,1.2,2.93c0,0-.13,2.28,1.75,4.15l2.4,2.4,4,3.56,3.86,3.13c.59.47,4.34,3.46,7.15,5.9.51.44.07.06,2.73,2.44,1.36,1.22,1.51,1.34,1.75,1.66.82,1.11,1.76,3.28.81,4.3-.82.88-3.04.85-5.07-.53l-3.07-2.88-5.55-6.77-5.36-6.55-4.37-4.84-1.41-1.4s-1.92-1.46-3.95-1.63l-1.39-.35s-1.61-.35-3.22-2.51l-3.49-4.05-3.55-4.25s-.45-.68.22-.17l.95.85,4.01,3.78,2.08,1.92c.21.23.47.28.56.21.09-.07.07-.32-.13-.55l-2.58-2.97-1.94-2.22-1.01-1.16c-.22-.26-.43-.52-.65-.78-.03-.09-.07-.22-.03-.25.05-.03.19.09.24.14.26.24.8.7,1.52,1.34l4.65,4.22,1.03.91c.24.23.55.23.65.13.1-.1.06-.39-.2-.6l-3.37-3.77-2.76-3.05s-.47-.65.24-.17l2.21,1.89,1.92,1.67,3.09,2.73c.26.22.54.26.62.18.08-.08.01-.32-.2-.54l-2.9-3.12-2.07-2.23c-.4-.44-.81-.89-1.21-1.33-.21-.25-.41-.52-.37-.56.02-.02.11,0,.55.35Z"/>
  <path class="cls-3" d="m386.97,32.36l-3.79,4.48-4.36,5.23-6.34,7.04c-1.79,1.67-3.87,1.97-4.79,1.13-.89-.81-.64-2.45-.59-2.77.25-1.53,1.27-2.45,1.61-2.72.82-.82,1.64-1.64,2.45-2.46.88-.74,1.76-1.48,2.65-2.23,1.38-1.1,3.07-2.47,5-4.07.99-.82,3.51-2.92,6.71-5.73,1.73-1.52,3.74-3.3,5.95-5.34l9.98-8.66,3.55-3.08c.92-.86,2.04-1.07,2.5-.69.51.41.5,1.78-.59,2.91-.93,1.15-1.86,2.3-2.79,3.46-1.55,1.75-3.09,3.49-4.64,5.24l-6.06,5.7-1.38,1.19s-.84.69-2.17,1c-.3-.09-.9-.23-1.63-.11-.59.1-1.02.33-1.27.49Z"/>
  <path class="cls-3" d="m387.07,21.45c-1.59,0-2.89-.22-3.88-.65s-1.77-1.05-2.33-1.83c-.29-.41-.54-.85-.76-1.34s-.4-1.01-.54-1.6c-.27-1.16-.41-3.06-.41-5.71.29-.39.81-.72,1.56-.99.75-.27,1.67-.47,2.77-.61,1.09-.14,2.29-.21,3.59-.21,1.99,0,3.7.16,5.14.49,1.44.33,2.36.77,2.78,1.32v.51c0,.16,0,.32.03.48l.05-.03c.2-.11.45-.2.75-.29.3-.09.65-.13,1.04-.13.83,0,1.48.25,1.95.75.47.5.71,1.22.71,2.16,0,1.09-.51,2.02-1.53,2.79-1.02.77-2.39,1.24-4.11,1.4-.58,1.19-1.42,2.07-2.51,2.64-1.09.57-2.53.85-4.3.85Zm-5.29-10.04c-.25-.21-.38-.4-.38-.56,0-.34.49-.61,1.47-.83.98-.21,2.38-.32,4.2-.32s3.21.11,4.21.32c.98.21,1.46.49,1.46.83,0,.16-.13.35-.38.56.25-.04.48-.08.68-.12.2-.04.38-.1.54-.17.34-.12.52-.26.52-.4,0-.41-.73-.76-2.2-1.04-.72-.14-1.49-.25-2.31-.33-.81-.08-1.65-.12-2.52-.12s-1.7.04-2.5.11c-.8.07-1.56.19-2.31.35-1.48.32-2.22.67-2.22,1.04,0,.14.17.28.52.4.16.07.35.13.56.17s.43.08.66.12Zm5.26,9.1c1.03,0,1.87-.07,2.51-.21.64-.14,1.17-.35,1.59-.61.42-.27.79-.58,1.11-.93.25-.27.49-.6.71-1,.22-.4.4-.87.54-1.4.31-1.07.46-2.64.46-4.73-1,.32-2.06.55-3.2.68-1.14.13-2.37.2-3.69.2s-2.63-.08-3.81-.23c-1.18-.15-2.23-.37-3.13-.65,0,2.19.16,3.79.49,4.81.33,1.03.74,1.82,1.23,2.36.5.54,1.11.97,1.83,1.27.76.3,1.88.45,3.36.45Zm-2.9-12.6c.14-.34.27-.63.38-.88.11-.25.16-.51.16-.77,0-.55-.32-1.07-.95-1.55-.63-.48-.95-.96-.95-1.44s.14-.93.42-1.35c.28-.42.59-.74.94-.97-.11.18-.22.41-.34.71-.12.29-.18.59-.18.89,0,.45.3.98.9,1.6.6.61.9,1.17.9,1.68,0,.36-.08.67-.24.95-.16.28-.51.65-1.03,1.13Zm3.01,0c.14-.37.27-.7.38-.99.11-.28.16-.58.16-.88,0-.6-.32-1.19-.95-1.76-.65-.59-.98-1.13-.98-1.63,0-.55.14-1.07.43-1.55.29-.48.61-.84.95-1.07-.11.2-.22.46-.34.8-.12.34-.18.68-.18,1.01,0,.5.31,1.1.92,1.82.6.69.9,1.33.9,1.9,0,.36-.07.69-.22.99-.15.3-.51.76-1.09,1.36Zm-.16,12.39v-.27c.85-.2,1.59-.48,2.21-.84.62-.37,1.11-.86,1.45-1.48.34-.62.52-1.34.54-2.16.02-.82.03-1.73.03-2.72.42-.04.82-.09,1.22-.16s.74-.17,1.03-.29c0,1.41-.09,2.55-.28,3.44-.19.89-.48,1.61-.88,2.15s-.92,1.01-1.57,1.4c-.94.57-2.19.88-3.74.93Zm3.55-12.39c.14-.34.27-.63.38-.88.11-.25.16-.51.16-.77,0-.55-.32-1.07-.95-1.55-.63-.48-.95-.96-.95-1.44s.14-.97.42-1.4c.28-.44.59-.74.94-.92-.11.18-.22.41-.34.71-.12.29-.18.59-.18.89,0,.45.3.98.9,1.6.6.61.9,1.17.9,1.68,0,.34-.07.65-.22.92-.15.28-.5.66-1.06,1.16Zm3.88,8.57c1.14-.11,2-.39,2.59-.85s.88-1.06.88-1.79c0-1.07-.44-1.6-1.33-1.6-.72,0-1.25.16-1.57.48,0,.39-.04.85-.11,1.39-.07.53-.15,1.03-.23,1.48-.08.45-.16.75-.23.89Z"/>
</svg>