<?xml version="1.0" encoding="UTF-8"?>
<svg id="Capa_1" data-name="Capa 1" xmlns="http://www.w3.org/2000/svg" viewBox="0 0 765.66 281.84">
  <defs>
    <style>
      .cls-1 {
        fill: #7b5018;
      }

      .cls-1, .cls-2, .cls-3, .cls-4 {
        stroke-width: 0px;
      }

      .cls-2 {
        fill: #f6f6f6;
      }

      .cls-3 {
        fill: #fff;
      }

      .cls-4 {
        fill: #16162d;
      }
    </style>
  </defs>
  <circle class="cls-1" cx="140.92" cy="140.92" r="140.92"/>
  <path class="cls-2" d="m60.2,137.65c.07-2.89-.22-5.62-.86-8.18-.65-2.56-1.81-4.63-3.5-6.22-1.69-1.58-4.08-2.38-7.18-2.38-4.46,0-7.64,2.09-9.53,6.27-1.9,4.18-2.85,10.22-2.85,18.13,0,7.45,1.25,13.04,3.74,16.75s6.02,5.56,10.58,5.56c3.62,0,6.88-.77,9.77-2.3s5.56-3.2,7.99-5.02c1.64,1.08,3.24,2.66,4.81,4.73s2.52,4.08,2.87,6.03c-2.02,1.99-4.52,3.81-7.5,5.49s-6.26,3.02-9.85,4.05-7.31,1.54-11.18,1.54c-5.47,0-10.06-1.06-13.77-3.19s-6.66-4.97-8.86-8.54-3.77-7.54-4.73-11.91-1.44-8.8-1.44-13.3c0-8.78,1.39-15.93,4.18-21.45,2.79-5.52,6.49-9.59,11.1-12.2,4.61-2.61,9.71-3.92,15.28-3.92s10.11.96,14.13,2.87c4.02,1.92,7.14,4.51,9.35,7.79,2.21,3.27,3.32,6.97,3.32,11.08,0,3.27-.84,5.63-2.53,7.05-1.69,1.43-4.03,2.14-7.03,2.14-1.18,0-2.28-.09-3.29-.26-1-.16-2.01-.37-3.02-.61Z"/>
  <path class="cls-2" d="m218.27,181.17c-1.01,0-2.32-.04-3.94-.1-1.62-.07-3.09-.23-4.42-.47v-71.37c1.32-.24,2.8-.4,4.42-.47s2.93-.1,3.94-.1c1.11,0,2.45.04,4,.1,1.55.07,3.02.23,4.41.47v19.96c0,1.46-.02,2.76-.05,3.89-.04,1.13-.05,2.41-.05,3.84v13.79c0,1.39.02,2.66.05,3.81s.05,2.46.05,3.92v22.15c-1.39.24-2.87.4-4.41.47-1.56.07-2.89.11-4,.11Zm-1.78-30.36v-14c1.64,0,3.32.02,5.04.05,1.72.04,3.4.05,5.04.05.52,0,1.09-.01,1.7-.03s1.23-.03,1.85-.05c.63-.02,1.18-.03,1.67-.03h12.07c.49,0,1.04.01,1.67.03s1.25.04,1.88.05,1.18.03,1.67.03c1.64,0,3.31-.02,5.02-.05s3.38-.05,5.02-.05v14c-1.64,0-3.31-.02-5.02-.05s-3.38-.05-5.02-.05c-.49,0-1.04.01-1.67.03s-1.25.04-1.88.05c-.63.02-1.18.03-1.67.03h-12.07c-.49,0-1.04-.01-1.67-.03s-1.25-.03-1.85-.05c-.61-.02-1.18-.03-1.7-.03-1.64,0-3.32.02-5.04.05-1.72.04-3.4.05-5.04.05Zm41.07,30.36c-1.18,0-2.55-.04-4.1-.1-1.55-.07-3.04-.23-4.47-.47v-22.15c0-1.46.02-2.77.05-3.92.03-1.15.05-2.42.05-3.81v-13.79c0-1.43-.02-2.71-.05-3.84-.04-1.13-.05-2.43-.05-3.89v-19.96c1.39-.24,2.86-.4,4.39-.47,1.53-.07,2.86-.1,3.97-.1,1.01,0,2.33.04,3.94.1,1.62.07,3.11.23,4.47.47v71.37c-1.43.24-2.87.4-4.31.47-1.45.05-2.74.09-3.89.09Z"/>
  <path class="cls-2" d="m127.53,188.83c1.32-.21,2.92-.36,4.78-.44,1.86-.09,3.49-.13,4.88-.13s2.93.04,4.83.13c1.9.09,3.51.27,4.83.55l22.47,70.17c-1.15.66-2.64,1.16-4.47,1.49s-3.53.5-5.09.5c-2.65,0-4.72-.61-6.22-1.83s-2.75-3.62-3.76-7.21l-7.47-26.49c-.8-2.93-1.73-6.37-2.79-10.32s-2.05-7.67-2.95-11.16h-.63c-.35,1.92-.82,4.06-1.41,6.43s-1.21,4.73-1.85,7.08c-.65,2.35-1.25,4.49-1.8,6.4l-10.66,36.31c-1.04.24-2.16.4-3.34.47s-2.44.1-3.76.1c-1.25,0-2.67-.09-4.26-.26-1.59-.17-2.85-.44-3.79-.78l-.63-.94,23.09-70.07Zm1.25,56.43c-.49,0-1.05-.01-1.7-.03s-1.29-.03-1.93-.05c-.65-.02-1.21-.03-1.7-.03h-8.78l5.07-13.01h7.73c.49,0,1.04-.01,1.67-.03s1.25-.03,1.88-.05,1.18-.03,1.67-.03h7.63c.52,0,1.09.01,1.7.03s1.24.04,1.88.05c.64.02,1.21.03,1.7.03h7.99l4.23,13.01h-8.78c-.49,0-1.06.01-1.72.03s-1.31.04-1.96.05c-.65.02-1.21.03-1.7.03h-14.88Z"/>
  <path class="cls-3" d="m63.21,47.59c12.3,11.01,24.6,22.02,36.89,33.03l5.72,4.76s3.5,1.13,5.26,13.12c0,0-.58,10.19,7.69,18.57l10.57,10.72,17.6,15.93,16.99,14c2.58,2.09,19.1,15.5,31.49,26.42,2.25,1.98.29.29,12.02,10.93,6.01,5.44,6.66,6.01,7.69,7.43,3.59,4.95,7.76,14.69,3.57,19.23-3.63,3.93-13.4,3.8-22.32-2.35l-13.5-12.87-24.45-30.31-23.59-29.3-19.26-21.65-6.22-6.24s-8.46-6.55-17.41-7.3l-6.14-1.55s-7.1-1.56-14.18-11.23l-15.36-18.12-15.61-19.06s-1.97-3.05.96-.77l4.19,3.79,17.66,16.91,9.16,8.58c.92,1.03,2.09,1.25,2.49.92.39-.33.32-1.44-.57-2.44l-11.38-13.29-8.53-9.93-4.46-5.21c-.95-1.17-1.91-2.33-2.86-3.5-.14-.39-.32-1-.12-1.13.23-.14.83.41,1.06.62,1.16,1.05,3.52,3.15,6.69,5.98l20.46,18.88,4.53,4.09c1.06,1.01,2.42,1.03,2.86.56s.28-1.76-.9-2.67l-14.84-16.87-12.16-13.64s-2.06-2.89,1.06-.75l9.75,8.47,8.45,7.49,13.61,12.22c1.16.96,2.37,1.16,2.71.8.34-.35.06-1.41-.88-2.4l-12.78-13.98-9.09-9.99c-1.77-1.99-3.55-3.98-5.32-5.97-.92-1.13-1.82-2.34-1.63-2.51.08-.08.47,0,2.43,1.58Z"/>
  <g>
    <path class="cls-1" d="m450.28,63.09c.06-2.41-.18-4.67-.72-6.81-.54-2.13-1.51-3.86-2.91-5.17-1.41-1.32-3.4-1.98-5.98-1.98-3.71,0-6.36,1.74-7.94,5.22-1.58,3.48-2.37,8.51-2.37,15.09,0,6.2,1.04,10.85,3.11,13.94,2.07,3.09,5.01,4.63,8.81,4.63,3.01,0,5.72-.64,8.13-1.91,2.41-1.28,4.62-2.67,6.65-4.17,1.36.9,2.7,2.21,4,3.94s2.1,3.4,2.39,5.02c-1.68,1.65-3.76,3.17-6.24,4.57-2.48,1.39-5.21,2.52-8.2,3.37-2.99.85-6.09,1.28-9.31,1.28-4.55,0-8.37-.88-11.46-2.65-3.09-1.77-5.54-4.14-7.37-7.11s-3.14-6.28-3.93-9.91c-.8-3.64-1.2-7.33-1.2-11.07,0-7.31,1.16-13.26,3.48-17.85s5.4-7.98,9.24-10.15,8.08-3.26,12.72-3.26,8.41.8,11.76,2.39,5.94,3.75,7.78,6.48,2.76,5.8,2.76,9.22c0,2.73-.7,4.68-2.11,5.87-1.41,1.19-3.36,1.78-5.85,1.78-.99,0-1.9-.07-2.74-.22-.82-.17-1.66-.34-2.5-.54Z"/>
    <path class="cls-1" d="m484.07,98.83c-.96.17-2.01.3-3.17.37-1.16.07-2.35.11-3.57.11-1.07,0-2.17-.04-3.31-.11-1.13-.07-2.22-.2-3.26-.37v-63.4l.61-.61h5.31c2.67,0,4.57.61,5.7,1.83s1.7,3.33,1.7,6.35v55.83h0Zm23.78-10.87c0,1.68.16,3.27.48,4.76.32,1.49.87,2.79,1.65,3.89-.99.81-2.22,1.5-3.7,2.07-1.48.57-3.07.85-4.78.85-2.73,0-4.62-.72-5.67-2.17-1.06-1.45-1.59-3.52-1.59-6.22v-18.52c0-1.97-.26-3.43-.78-4.37s-1.51-1.41-2.96-1.41c-.9,0-1.94.25-3.11.74-1.17.49-2.35,1.28-3.52,2.37-1.17,1.09-2.2,2.54-3.07,4.37v-11.87c2.03-2,4.24-3.8,6.63-5.39s5.14-2.39,8.24-2.39c2.64,0,4.86.66,6.67,1.98,1.81,1.32,3.18,3.14,4.11,5.46s1.39,5,1.39,8.04v17.81h.01Z"/>
    <path class="cls-1" d="m524.12,81.52v-9.35h16.39v-1c0-1.33-.19-2.56-.57-3.67-.38-1.12-.98-2.01-1.8-2.7-.83-.68-1.94-1.02-3.33-1.02-2.12,0-3.6.87-4.46,2.61-.86,1.74-1.28,4.42-1.28,8.04v4.09c0,1.97.17,3.81.52,5.52.35,1.71,1.09,3.09,2.22,4.13,1.13,1.04,2.85,1.57,5.17,1.57,1.97,0,3.91-.25,5.8-.76,1.9-.51,3.72-1.12,5.46-1.85,1.01.99,1.83,2.23,2.44,3.74.61,1.51,1.01,2.94,1.22,4.3-2.2,1.59-4.83,2.81-7.89,3.65s-6.14,1.26-9.24,1.26c-3.83,0-6.99-.63-9.48-1.89s-4.46-2.96-5.91-5.11c-1.45-2.15-2.47-4.57-3.07-7.28-.59-2.71-.89-5.5-.89-8.37,0-4.38.66-8.32,1.98-11.83s3.41-6.3,6.28-8.37c2.87-2.07,6.61-3.11,11.22-3.11,3.83,0,7.09.81,9.78,2.44s4.76,3.82,6.2,6.59c1.44,2.77,2.15,5.91,2.15,9.41,0,1.94-.09,3.56-.28,4.85s-.49,2.66-.89,4.11h-27.74Z"/>
    <path class="cls-1" d="m570.25,55.52l17.09-.17c.35,1.48.52,3.06.52,4.74,0,.75-.04,1.57-.13,2.46-.09.88-.22,1.7-.39,2.46l-17.26-.26-13.92.26c-.17-.75-.3-1.57-.39-2.46-.09-.88-.13-1.7-.13-2.46s.04-1.55.13-2.39.22-1.62.39-2.35l14.09.17Zm-6.61,5.57c-.17-1.88-.41-3.77-.7-5.65-.29-1.88-.43-3.81-.43-5.78,0-2.9.63-5.49,1.89-7.76,1.26-2.28,3.04-4.08,5.33-5.41,2.29-1.33,4.94-2,7.96-2,2.72,0,5.25.25,7.57.76s4.23,1.05,5.74,1.63c.06,1.54-.19,3.18-.74,4.94-.55,1.75-1.28,3.09-2.17,4.02-.87-.23-1.91-.48-3.13-.74-1.22-.26-2.42-.39-3.61-.39-1.86,0-3.29.49-4.3,1.48-1.02.99-1.52,2.46-1.52,4.44,0,1.62.18,3.39.54,5.28.36,1.9.64,3.66.85,5.28v37.66c-1.04.17-2.15.3-3.3.37-1.16.07-2.3.11-3.44.11-1.07,0-2.17-.04-3.3-.11s-2.2-.2-3.22-.37v-37.76h-.02Z"/>
    <path class="cls-1" d="m609.21,86.96c0-3.51.81-6.37,2.43-8.59s3.75-3.86,6.37-4.94c2.62-1.07,5.43-1.61,8.41-1.61,1.3,0,2.95.03,4.94.09s3.78.25,5.37.57v8.61c-1.25-.29-2.75-.46-4.5-.5s-3.21-.07-4.37-.07c-1.94,0-3.33.52-4.17,1.54-.84,1.03-1.26,2.36-1.26,3.98,0,1.16.35,2.12,1.07,2.89.71.77,1.69,1.15,2.94,1.15,1.74,0,3.51-.62,5.3-1.87,1.8-1.25,3.32-2.96,4.57-5.13l1.91,8.61c-1.13,1.33-2.42,2.65-3.87,3.94-1.45,1.29-3.15,2.36-5.09,3.2s-4.22,1.26-6.83,1.26c-2.99,0-5.46-.66-7.41-1.98-1.96-1.32-3.41-2.99-4.37-5-.96-2.01-1.44-4.06-1.44-6.15Zm39.44,5.57c-.23,1.22-.77,2.52-1.61,3.91s-1.68,2.42-2.52,3.09c-2.55-.06-4.66-.64-6.33-1.74-1.67-1.1-2.94-2.46-3.83-4.07-.88-1.61-1.46-3.18-1.72-4.72v-18.61c0-1.8-.46-3.17-1.37-4.11s-2.36-1.41-4.33-1.41c-1.86,0-3.88.3-6.09.89-2.2.59-4.45,1.23-6.74,1.89-.96-1.1-1.7-2.53-2.24-4.28s-.88-3.47-1.02-5.15c1.97-.81,4.15-1.5,6.52-2.07,2.38-.57,4.74-1,7.09-1.3s4.45-.46,6.31-.46c2.55,0,5,.47,7.35,1.41s4.28,2.49,5.8,4.65c1.52,2.16,2.28,5.08,2.28,8.76v17.7c0,1.25.2,2.35.61,3.31s1.03,1.73,1.84,2.31Z"/>
    <path class="cls-1" d="m681.79,55.35c.41,1.54.61,3.12.61,4.74,0,.81-.04,1.63-.13,2.46s-.25,1.65-.48,2.46l-16.22-.26-14.18.26c-.38-1.54-.57-3.17-.57-4.91,0-1.57.19-3.15.57-4.74l14.57.22,15.83-.23Zm-23.57-4.83c0-3.04.56-5.17,1.67-6.37,1.12-1.2,3.01-1.8,5.67-1.8h5.31l.61.61v41.88c0,1.3.3,2.31.89,3.02s1.59,1.07,2.98,1.07h4.87c.32.96.57,2.01.76,3.15.19,1.15.28,2.24.28,3.28,0,.49-.01,1.02-.04,1.57s-.12,1.06-.26,1.52c-1.59.2-3.44.39-5.52.57s-4,.26-5.74.26c-3.94,0-6.84-.98-8.7-2.94s-2.78-5.01-2.78-9.15v-36.67h0Z"/>
  </g>
  <g>
    <path class="cls-1" d="m318.24,207.17c-1.84,0-4.22-.06-7.17-.19-2.94-.13-5.62-.41-8.02-.85V76.44c2.4-.44,5.08-.73,8.02-.85,2.94-.13,5.33-.19,7.17-.19,2.02,0,4.45.06,7.26.19,2.82.13,5.49.41,8.02.85v36.27c0,2.66-.03,5.02-.1,7.07-.06,2.06-.09,4.38-.09,6.98v25.06c0,2.53.03,4.84.09,6.93s.1,4.46.1,7.12v40.25c-2.53.44-5.21.73-8.02.85-2.82.13-5.24.2-7.26.2Zm-3.23-55.16v-25.44c2.97,0,6.03.03,9.16.1,3.13.06,6.19.09,9.16.09.95,0,1.98-.01,3.09-.05,1.11-.03,2.23-.06,3.37-.1,1.14-.03,2.15-.05,3.04-.05h21.93c.89,0,1.9.02,3.04.05s2.28.06,3.42.1c1.14.03,2.15.05,3.04.05,2.97,0,6.01-.03,9.11-.09,3.1-.06,6.14-.1,9.11-.1v25.44c-2.98,0-6.01-.03-9.11-.1-3.1-.06-6.14-.09-9.11-.09-.89,0-1.9.02-3.04.05s-2.28.06-3.42.1c-1.14.03-2.15.05-3.04.05h-21.93c-.89,0-1.9-.01-3.04-.05-1.14-.03-2.26-.06-3.37-.1-1.11-.03-2.14-.05-3.09-.05-2.98,0-6.03.03-9.16.09-3.13.07-6.19.1-9.16.1Zm74.62,55.16c-2.15,0-4.64-.06-7.45-.19-2.82-.13-5.52-.41-8.12-.85v-40.25c0-2.66.03-5.03.09-7.12s.1-4.4.1-6.93v-25.06c0-2.59-.03-4.92-.1-6.98-.06-2.06-.09-4.41-.09-7.07v-36.27c2.53-.44,5.19-.73,7.97-.85,2.78-.13,5.19-.19,7.22-.19,1.83,0,4.22.06,7.17.19,2.94.13,5.65.41,8.12.85v129.68c-2.6.44-5.21.73-7.83.85-2.64.12-4.99.19-7.08.19Z"/>
    <path class="cls-1" d="m512.38,158.75c0,10.13-1.68,18.96-5.03,26.49-3.35,7.53-8.28,13.35-14.76,17.47-6.49,4.11-14.51,6.17-24.07,6.17s-17.69-2.07-24.21-6.22c-6.52-4.14-11.42-9.98-14.71-17.52-3.29-7.53-4.94-16.33-4.94-26.39s1.66-19.03,4.98-26.53,8.24-13.32,14.76-17.47c6.52-4.14,14.56-6.22,24.11-6.22s17.69,2.09,24.21,6.27,11.42,10.02,14.71,17.52c3.3,7.49,4.95,16.31,4.95,26.43Zm-57.25,0c0,5.19.3,9.91.9,14.15s1.87,7.61,3.8,10.11,4.83,3.75,8.69,3.75,6.84-1.25,8.73-3.75c1.9-2.5,3.15-5.87,3.75-10.11s.9-8.96.9-14.15-.3-10-.9-14.24-1.85-7.61-3.75-10.11-4.81-3.75-8.73-3.75-6.76,1.25-8.69,3.75-3.2,5.87-3.8,10.11-.9,8.99-.9,14.24Z"/>
    <path class="cls-1" d="m541.71,110.05c5.7,0,10.02,1.95,12.96,5.84,2.94,3.89,4.41,9.13,4.41,15.71v74.52c-2.09.38-4.45.65-7.07.81-2.63.16-5.21.24-7.74.24s-5.02-.08-7.64-.24c-2.63-.16-5.05-.43-7.26-.81v-94.75l1.33-1.33h11.01Zm38.54,38.92c0-5.06-.92-8.45-2.75-10.16-1.84-1.71-3.77-2.56-5.79-2.56-2.72.06-5.6,1.14-8.64,3.23-3.04,2.09-5.79,4.64-8.26,7.64-2.47,3.01-4.24,6-5.32,8.97v-25.63c2.97-3.35,6.27-6.63,9.87-9.83,3.61-3.19,7.47-5.82,11.58-7.88,4.11-2.06,8.45-3.09,13.01-3.09,5.51,0,10.21,1.28,14.1,3.84,3.89,2.56,6.85,6.09,8.88,10.59,2.02,4.49,3.04,9.65,3.04,15.47v66.55c-2.09.38-4.45.65-7.07.81-2.63.16-5.21.24-7.74.24s-5.02-.08-7.64-.24c-2.63-.16-5.05-.43-7.26-.81v-57.14h0Zm50.7-.19c0-5.06-.96-8.42-2.9-10.06-1.93-1.65-3.91-2.47-5.93-2.47-2.47,0-5.16,1.06-8.07,3.18-2.91,2.12-5.67,4.78-8.26,7.97-2.6,3.2-4.65,6.44-6.17,9.73v-27.44c2.85-3.42,6.2-6.66,10.06-9.73s8.01-5.55,12.44-7.45c4.43-1.9,8.86-2.85,13.29-2.85,5.57,0,10.22,1.31,13.96,3.94,3.73,2.63,6.55,6.22,8.45,10.77,1.9,4.56,2.85,9.75,2.85,15.57v42.44c0,3.67.35,7.14,1.04,10.4.7,3.26,1.93,6.09,3.7,8.5-2.15,1.77-4.84,3.28-8.07,4.51s-6.71,1.85-10.44,1.85c-5.95,0-10.1-1.58-12.44-4.75-2.34-3.16-3.51-7.69-3.51-13.58v-40.53h0Z"/>
    <path class="cls-1" d="m696.26,168.34v-20.41h35.79v-2.18c0-2.91-.41-5.58-1.23-8.02s-2.14-4.4-3.94-5.89c-1.8-1.49-4.22-2.23-7.26-2.23-4.62,0-7.87,1.9-9.73,5.7-1.87,3.8-2.8,9.65-2.8,17.56v8.92c0,4.3.38,8.32,1.14,12.06s2.37,6.74,4.84,9.02c2.47,2.28,6.23,3.42,11.3,3.42,4.3,0,8.53-.55,12.67-1.66,4.14-1.11,8.12-2.45,11.92-4.04,2.21,2.15,3.99,4.88,5.32,8.17s2.21,6.42,2.66,9.4c-4.81,3.48-10.55,6.14-17.23,7.97s-13.4,2.75-20.17,2.75c-8.35,0-15.25-1.38-20.7-4.13-5.44-2.75-9.75-6.47-12.91-11.15-3.17-4.68-5.4-9.98-6.69-15.9-1.3-5.92-1.95-12.01-1.95-18.27,0-9.56,1.44-18.16,4.32-25.82s7.45-13.75,13.72-18.28c6.27-4.52,14.43-6.79,24.49-6.79,8.35,0,15.47,1.77,21.36,5.32,5.89,3.54,10.4,8.34,13.53,14.38s4.7,12.9,4.7,20.55c0,4.24-.21,7.77-.62,10.59s-1.06,5.81-1.95,8.97h-60.58Z"/>
  </g>
  <g>
    <path class="cls-4" d="m300.23,243.04v12.82h-8.96v-33.37h15.22c7.33,0,11.33,3.85,11.33,9.15,0,4.48-2.27,6.73-5.13,7.87,3.47,1.33,4.51,4.16,4.51,8v1.03c0,2.79.11,5.7.39,7.33h-8.83c-.49-1.38-.65-3.51-.65-7.34v-.94c0-3.49-1.14-4.53-4.69-4.53h-3.19v-.02Zm0-6.55h3.87c2.73,0,4.67-1.04,4.67-3.86,0-2.61-1.75-3.62-4.08-3.62h-4.45v7.48h-.01Z"/>
    <path class="cls-4" d="m345.84,242.14h-13.98v6.82h15.58l-1.03,6.9h-23.42v-33.37h23.43v6.95h-14.55v5.76h13.98v6.94h0Z"/>
    <path class="cls-4" d="m379.69,244.78c-.91,6.58-5.14,11.71-14.27,11.71-11.27,0-15.04-7.87-15.04-17.24s4.82-17.34,15.37-17.34,13.52,6.41,13.79,11.54h-9.03c-.48-2.54-1.31-4.79-4.9-4.79-4.3,0-5.69,4.43-5.69,10.56s1.4,10.52,5.7,10.52c3.62,0,4.58-2.67,5.02-4.95h9.05Z"/>
    <path class="cls-4" d="m407.2,242.14h-13.98v6.82h15.58l-1.03,6.9h-23.43v-33.37h23.42v6.95h-14.55v5.76h13.98v6.94h0Z"/>
    <path class="cls-4" d="m419.33,229.44h-8.61v-6.95h26.4v6.95h-8.56v26.42h-9.22v-26.42h-.01Z"/>
    <path class="cls-4" d="m448.78,249.1l-1.68,6.76h-9.02l9.34-33.37h12.37l9.77,33.37h-9.56l-1.86-6.76h-9.36Zm7.84-7.17c-1.35-5.02-2.51-9.83-3.21-13.27h-.13c-.68,3.67-1.81,8.51-3.06,13.27h6.4Z"/>
    <path class="cls-4" d="m479.86,245.66c.35,2.71,1.94,4.37,4.97,4.37s4.04-1.29,4.04-3.11c0-2.41-1.59-3.5-6.14-4.75-8.31-2.25-10.8-5.41-10.8-10.08,0-6.73,5.47-10.19,12.46-10.19,8.26,0,12.54,3.97,12.91,10.15h-8.7c-.27-2.09-1.22-3.81-4.17-3.81-2.26,0-3.49,1.04-3.49,2.83,0,2.07,1.49,2.67,5.95,3.93,8.8,2.5,11.25,5.84,11.25,10.91,0,6.35-4.72,10.55-13.56,10.55-8.25,0-13.11-4.13-13.48-10.79h8.76Z"/>
    <path class="cls-4" d="m513.38,222.49h12.89c10.83,0,16.08,6.32,16.08,16.11,0,10.7-5.79,17.26-16.24,17.26h-12.73v-33.37h0Zm9.24,26.75h3.05c4.84,0,7.11-3.25,7.11-10.51,0-6.28-1.89-9.57-7.01-9.57h-3.15v20.08h0Z"/>
    <path class="cls-4" d="m570.26,242.14h-13.98v6.82h15.58l-1.03,6.9h-23.42v-33.37h23.42v6.95h-14.55v5.76h13.98v6.94Z"/>
    <path class="cls-4" d="m614.64,244.78c-.91,6.58-5.14,11.71-14.27,11.71-11.27,0-15.04-7.87-15.04-17.24s4.82-17.34,15.37-17.34,13.52,6.41,13.79,11.54h-9.03c-.48-2.54-1.3-4.79-4.9-4.79-4.3,0-5.69,4.43-5.69,10.56s1.4,10.52,5.7,10.52c3.62,0,4.58-2.67,5.02-4.95h9.05Z"/>
    <path class="cls-4" d="m649.42,238.99c0,9.75-4.59,17.49-16.02,17.49s-15.43-7.78-15.43-17.52c0-8.69,4.67-17.07,15.95-17.07,10.79.01,15.5,8.08,15.5,17.1Zm-21.88-.06c0,6.4,1.88,10.83,6.21,10.83,4.68,0,6.14-4.08,6.14-10.85,0-5.88-1.41-10.27-6.25-10.27-4.43-.01-6.1,4.08-6.1,10.29Z"/>
    <path class="cls-4" d="m682.47,244.78c-.91,6.58-5.14,11.71-14.27,11.71-11.27,0-15.04-7.87-15.04-17.24s4.82-17.34,15.37-17.34,13.52,6.41,13.79,11.54h-9.03c-.48-2.54-1.3-4.79-4.9-4.79-4.3,0-5.69,4.43-5.69,10.56s1.4,10.52,5.7,10.52c3.62,0,4.58-2.67,5.02-4.95h9.05Z"/>
    <path class="cls-4" d="m696.32,222.49v33.37h-9.21v-33.37h9.21Z"/>
    <path class="cls-4" d="m702.66,255.86v-33.37h11.13c7.06,16.89,8.5,20.73,8.9,22.14h.17c-.34-3.9-.46-9.62-.46-14.8v-7.34h8.42v33.37h-10.74c-7.69-18.88-8.81-21.89-9.23-23.14h-.1c.29,4.19.31,9.91.31,15.68v7.46h-8.4Z"/>
    <path class="cls-4" d="m744.88,249.1l-1.68,6.76h-9.02l9.34-33.37h12.37l9.77,33.37h-9.56l-1.86-6.76h-9.36Zm7.84-7.17c-1.35-5.02-2.51-9.83-3.21-13.27h-.13c-.68,3.67-1.81,8.51-3.06,13.27h6.4Z"/>
  </g>
  <path class="cls-3" d="m148.24,144.79l-16.69,20.06-19.19,23.4-27.93,31.49c-7.9,7.46-17.04,8.8-21.07,5.07-3.91-3.61-2.83-10.97-2.6-12.41,1.08-6.83,5.61-10.96,7.07-12.19,3.6-3.67,7.2-7.34,10.8-11.02,3.88-3.32,7.77-6.64,11.65-9.96,6.06-4.91,13.54-11.05,22.03-18.22,4.37-3.69,15.44-13.08,29.56-25.65,7.62-6.79,16.45-14.79,26.2-23.88l43.95-38.76,15.61-13.8c4.05-3.87,8.98-4.77,11-3.1,2.24,1.84,2.22,7.95-2.61,13.04-4.1,5.15-8.19,10.31-12.29,15.46-6.81,7.81-13.62,15.63-20.44,23.44l-26.67,25.52-6.06,5.33s-3.71,3.1-9.55,4.46c-1.34-.42-3.95-1.03-7.16-.48-2.58.46-4.5,1.48-5.61,2.2Z"/>
  <path class="cls-3" d="m148.65,95.98c-7.01,0-12.7-.97-17.08-2.93-4.38-1.95-7.8-4.68-10.27-8.18-1.27-1.83-2.39-3.82-3.34-5.97-.96-2.15-1.75-4.54-2.39-7.17-1.19-5.18-1.79-13.7-1.79-25.57,1.27-1.75,3.56-3.23,6.87-4.42,3.3-1.19,7.37-2.11,12.18-2.75,4.82-.64,10.1-.96,15.83-.96,8.76,0,16.31.74,22.64,2.21s10.41,3.45,12.25,5.91v2.27c0,.72.04,1.43.12,2.15l.24-.12c.88-.48,1.97-.91,3.29-1.31,1.31-.4,2.85-.6,4.6-.6,3.66,0,6.53,1.12,8.6,3.34,2.07,2.23,3.11,5.46,3.11,9.68,0,4.86-2.25,9.02-6.75,12.49-4.5,3.46-10.53,5.55-18.1,6.27-2.55,5.34-6.23,9.28-11.05,11.83-4.84,2.56-11.15,3.83-18.96,3.83Zm-23.29-44.92c-1.12-.96-1.67-1.79-1.67-2.51,0-1.51,2.15-2.75,6.45-3.7,4.3-.96,10.47-1.43,18.52-1.43s14.14.48,18.52,1.43c4.3.96,6.45,2.19,6.45,3.7,0,.71-.56,1.55-1.67,2.51,1.11-.16,2.11-.34,2.99-.54s1.67-.46,2.39-.78c1.51-.56,2.27-1.15,2.27-1.79,0-1.83-3.23-3.38-9.68-4.66-3.19-.64-6.57-1.14-10.16-1.49-3.58-.36-7.29-.54-11.11-.54s-7.49.16-10.99.48c-3.5.32-6.89.84-10.16,1.55-6.53,1.43-9.8,2.99-9.8,4.66,0,.64.76,1.23,2.27,1.79.72.32,1.53.58,2.45.78s1.89.38,2.93.54Zm23.17,40.74c4.54,0,8.22-.32,11.05-.96,2.82-.64,5.16-1.55,6.99-2.75s3.46-2.59,4.9-4.18c1.12-1.2,2.15-2.69,3.11-4.48s1.75-3.88,2.39-6.27c1.35-4.78,2.03-11.83,2.03-21.15-4.38,1.43-9.08,2.45-14.1,3.05s-10.43.9-16.25.9-11.57-.34-16.79-1.02c-5.22-.68-9.82-1.65-13.8-2.93,0,9.8.72,16.97,2.15,21.5,1.43,4.62,3.24,8.15,5.43,10.57,2.19,2.43,4.88,4.32,8.06,5.68,3.36,1.36,8.3,2.04,14.83,2.04Zm-12.78-56.39c.64-1.51,1.19-2.83,1.67-3.94s.72-2.27.72-3.46c0-2.47-1.4-4.78-4.18-6.93-2.79-2.15-4.18-4.3-4.18-6.45s.62-4.16,1.85-6.03c1.23-1.87,2.61-3.32,4.12-4.36-.48.8-.98,1.85-1.49,3.17-.52,1.31-.78,2.65-.78,4,0,1.99,1.31,4.38,3.94,7.17,2.63,2.71,3.94,5.22,3.94,7.53,0,1.59-.36,3.01-1.08,4.24-.71,1.22-2.22,2.91-4.53,5.06Zm13.26,0c.63-1.67,1.19-3.15,1.67-4.42s.72-2.59.72-3.94c0-2.71-1.4-5.33-4.18-7.89-2.87-2.63-4.3-5.06-4.3-7.29,0-2.47.64-4.78,1.91-6.93s2.67-3.74,4.18-4.78c-.48.88-.98,2.07-1.49,3.58-.52,1.51-.78,3.03-.78,4.54,0,2.23,1.35,4.94,4.06,8.12,2.63,3.11,3.94,5.93,3.94,8.48,0,1.59-.32,3.07-.96,4.42-.63,1.37-2.22,3.4-4.77,6.11Zm-.71,55.43v-1.19c3.74-.88,6.99-2.13,9.74-3.76,2.75-1.63,4.88-3.84,6.39-6.63,1.51-2.79,2.31-6.01,2.39-9.68.08-3.66.12-7.72.12-12.18,1.83-.16,3.62-.4,5.38-.72,1.75-.32,3.26-.76,4.54-1.31,0,6.29-.42,11.43-1.25,15.41-.84,3.98-2.13,7.19-3.88,9.62s-4.06,4.52-6.93,6.27c-4.16,2.54-9.66,3.93-16.5,4.17Zm15.65-55.43c.63-1.51,1.19-2.83,1.67-3.94s.72-2.27.72-3.46c0-2.47-1.4-4.78-4.18-6.93-2.79-2.15-4.18-4.3-4.18-6.45s.61-4.32,1.85-6.27c1.23-1.95,2.61-3.33,4.12-4.12-.48.8-.98,1.85-1.49,3.17-.52,1.31-.78,2.65-.78,4,0,1.99,1.31,4.38,3.94,7.17,2.63,2.71,3.94,5.22,3.94,7.53,0,1.51-.32,2.89-.96,4.12-.63,1.22-2.19,2.95-4.65,5.18Zm17.08,38.35c5.02-.48,8.82-1.75,11.41-3.82s3.88-4.74,3.88-8c0-4.78-1.95-7.17-5.86-7.17-3.19,0-5.5.72-6.93,2.15,0,1.75-.16,3.82-.48,6.21-.32,2.39-.66,4.6-1.02,6.63-.34,2.03-.68,3.36-1,4Z"/>
</svg>