<?xml version="1.0" encoding="UTF-8"?>
<svg id="Capa_1" data-name="Capa 1" xmlns="http://www.w3.org/2000/svg" viewBox="0 0 234.74 308.37">
  <defs>
    <style>
      .cls-1 {
        font-family: NotoSansSymbols2-Regular, 'Noto Sans Symbols 2';
        font-size: 74.93px;
      }

      .cls-1, .cls-2 {
        fill: #fff;
      }

      .cls-3 {
        fill: #7b5018;
      }

      .cls-3, .cls-2, .cls-4 {
        stroke-width: 0px;
      }

      .cls-4 {
        fill: #16162d;
      }
    </style>
  </defs>
  <circle class="cls-3" cx="116.18" cy="101.4" r="92.72"/>
  <path class="cls-2" d="m62.31,99.24c.05-1.9-.14-3.7-.57-5.38-.42-1.68-1.19-3.05-2.3-4.09-1.11-1.04-2.69-1.56-4.73-1.56-2.93,0-5.02,1.38-6.27,4.12-1.25,2.75-1.87,6.73-1.87,11.93,0,4.9.82,8.58,2.46,11.02,1.64,2.44,3.96,3.66,6.96,3.66,2.38,0,4.53-.5,6.43-1.51,1.9-1.01,3.65-2.11,5.26-3.3,1.08.71,2.13,1.75,3.16,3.11,1.03,1.36,1.66,2.69,1.89,3.97-1.33,1.31-2.97,2.51-4.93,3.61-1.96,1.1-4.12,1.99-6.48,2.66-2.36.68-4.81,1.01-7.36,1.01-3.6,0-6.62-.7-9.06-2.1-2.44-1.4-4.38-3.27-5.83-5.62s-2.48-4.96-3.11-7.84c-.63-2.88-.95-5.79-.95-8.75,0-5.78.92-10.48,2.75-14.11,1.83-3.63,4.27-6.31,7.3-8.03,3.04-1.72,6.39-2.58,10.06-2.58s6.65.63,9.3,1.89c2.65,1.26,4.7,2.97,6.15,5.12,1.46,2.15,2.18,4.58,2.18,7.29,0,2.15-.56,3.7-1.67,4.64-1.11.94-2.65,1.41-4.62,1.41-.78,0-1.5-.06-2.17-.17-.67-.11-1.33-.25-1.99-.41Z"/>
  <path class="cls-2" d="m167.07,127.88c-.67,0-1.53-.02-2.6-.07-1.07-.05-2.03-.15-2.91-.31v-46.96c.87-.16,1.84-.26,2.91-.31,1.07-.05,1.93-.07,2.6-.07.73,0,1.61.02,2.63.07,1.02.05,1.99.15,2.91.31v13.13c0,.96-.01,1.82-.03,2.56-.02.75-.03,1.59-.03,2.53v9.07c0,.92.01,1.75.03,2.51.02.76.03,1.62.03,2.58v14.58c-.92.16-1.89.26-2.91.31-1.02.05-1.9.07-2.63.07Zm-1.17-19.97v-9.21c1.08,0,2.18.01,3.32.03,1.13.02,2.24.03,3.32.03.34,0,.72,0,1.12-.02.4-.01.81-.02,1.22-.03.41-.01.78-.02,1.1-.02h7.94c.32,0,.69,0,1.1.02.41.01.83.02,1.24.03.41.01.78.02,1.1.02,1.08,0,2.18-.01,3.3-.03,1.12-.02,2.22-.03,3.3-.03v9.21c-1.08,0-2.18-.01-3.3-.03-1.12-.02-2.22-.03-3.3-.03-.32,0-.69,0-1.1.02-.41.01-.83.02-1.24.03-.41.01-.78.02-1.1.02h-7.94c-.32,0-.69,0-1.1-.02-.41-.01-.82-.02-1.22-.03-.4-.01-.77-.02-1.12-.02-1.08,0-2.18.01-3.32.03-1.13.02-2.24.03-3.32.03Zm27.02,19.97c-.78,0-1.68-.02-2.7-.07-1.02-.05-2-.15-2.94-.31v-14.58c0-.96.01-1.82.03-2.58.02-.76.03-1.59.03-2.51v-9.07c0-.94-.01-1.78-.03-2.53-.02-.74-.03-1.6-.03-2.56v-13.13c.92-.16,1.88-.26,2.89-.31,1.01-.05,1.88-.07,2.61-.07.66,0,1.53.02,2.59.07,1.07.05,2.05.15,2.94.31v46.96c-.94.16-1.89.26-2.84.31-.95.05-1.8.07-2.56.07Z"/>
  <path class="cls-2" d="m107.37,132.92c.87-.14,1.92-.23,3.15-.29,1.23-.06,2.3-.09,3.21-.09s1.93.03,3.18.09c1.25.06,2.31.18,3.18.36l14.78,46.17c-.76.44-1.74.76-2.94.98s-2.32.33-3.35.33c-1.74,0-3.11-.4-4.09-1.2-.99-.8-1.81-2.38-2.47-4.74l-4.92-17.43c-.53-1.93-1.14-4.19-1.84-6.79-.7-2.6-1.35-5.05-1.94-7.34h-.41c-.23,1.26-.54,2.67-.93,4.23-.39,1.56-.8,3.11-1.22,4.66s-.82,2.95-1.19,4.21l-7.01,23.89c-.69.16-1.42.26-2.2.31s-1.6.07-2.47.07c-.83,0-1.76-.06-2.8-.17-1.04-.12-1.87-.29-2.49-.52l-.41-.62,15.19-46.1Zm.83,37.13c-.32,0-.69,0-1.12-.02-.42-.01-.85-.02-1.27-.03-.42-.01-.8-.02-1.12-.02h-5.77l3.33-8.56h5.09c.32,0,.69,0,1.1-.02.41-.01.83-.02,1.24-.03.41-.01.78-.02,1.1-.02h5.02c.34,0,.72,0,1.12.02.4.01.81.02,1.24.03.42.01.8.02,1.12.02h5.26l2.78,8.56h-5.77c-.32,0-.7,0-1.13.02-.44.01-.87.02-1.29.03-.42.01-.8.02-1.12.02h-9.8Z"/>
  <text class="cls-1" transform="translate(94.39 72.87)"><tspan x="0" y="0">☕</tspan></text>
  <path class="cls-2" d="m65.05,39.99c8.09,7.24,16.18,14.49,24.27,21.73l3.77,3.13s2.3.74,3.46,8.64c0,0-.38,6.7,5.06,12.21l6.96,7.05,11.58,10.48,11.18,9.21c1.7,1.38,12.56,10.2,20.72,17.38,1.48,1.3.19.19,7.91,7.19,3.95,3.58,4.38,3.96,5.06,4.89,2.36,3.25,5.11,9.67,2.35,12.65-2.39,2.58-8.81,2.5-14.68-1.55l-8.88-8.47-16.09-19.94-15.52-19.28-12.67-14.24-4.09-4.11s-5.57-4.31-11.46-4.81l-4.04-1.02s-4.67-1.03-9.33-7.39l-10.11-11.92-10.28-12.52s-1.3-2.01.63-.5l2.76,2.49,11.62,11.12,6.03,5.65c.6.68,1.37.82,1.64.61.26-.22.21-.95-.37-1.61l-7.49-8.74-5.62-6.53-2.94-3.43c-.63-.77-1.25-1.53-1.88-2.3-.09-.26-.21-.66-.08-.74.15-.09.55.27.7.41.76.69,2.31,2.07,4.4,3.93l13.46,12.42,2.98,2.69c.7.66,1.59.68,1.88.37.29-.31.19-1.16-.59-1.75l-9.77-11.1-8-8.98s-1.36-1.9.7-.5l6.41,5.57,5.56,4.93,8.96,8.04c.76.63,1.56.76,1.79.53.22-.23.04-.93-.58-1.58l-8.41-9.2-5.98-6.57c-1.17-1.31-2.33-2.62-3.5-3.93-.6-.74-1.2-1.54-1.08-1.65.06-.05.31,0,1.6,1.04Z"/>
  <g>
    <path class="cls-3" d="m78.27,212.36c.03-1.19-.09-2.32-.36-3.38-.27-1.06-.75-1.91-1.45-2.57-.7-.65-1.69-.98-2.97-.98-1.84,0-3.16.86-3.94,2.59-.78,1.73-1.18,4.22-1.18,7.49,0,3.08.51,5.39,1.54,6.92,1.03,1.53,2.49,2.3,4.37,2.3,1.5,0,2.84-.32,4.04-.95,1.19-.63,2.3-1.32,3.3-2.07.68.45,1.34,1.1,1.99,1.95s1.04,1.69,1.19,2.49c-.83.82-1.87,1.58-3.1,2.27s-2.59,1.25-4.07,1.67c-1.48.42-3.02.64-4.62.64-2.26,0-4.16-.44-5.69-1.32-1.53-.88-2.75-2.05-3.66-3.53-.91-1.48-1.56-3.12-1.95-4.92-.4-1.81-.59-3.64-.59-5.49,0-3.63.58-6.58,1.73-8.86s2.68-3.96,4.59-5.04c1.91-1.08,4.01-1.62,6.31-1.62s4.18.4,5.84,1.19c1.66.79,2.95,1.86,3.86,3.22s1.37,2.88,1.37,4.58c0,1.35-.35,2.33-1.05,2.92-.7.59-1.67.88-2.9.88-.49,0-.94-.04-1.36-.11-.42-.07-.83-.16-1.25-.26Z"/>
    <path class="cls-3" d="m95.05,230.1c-.47.09-1,.15-1.58.18-.58.04-1.17.05-1.77.05-.53,0-1.08-.02-1.64-.05-.56-.04-1.1-.1-1.62-.18v-31.47l.3-.3h2.63c1.32,0,2.27.3,2.83.91s.84,1.66.84,3.15v27.72Zm11.81-5.4c0,.83.08,1.62.24,2.36.16.74.43,1.39.82,1.93-.49.4-1.1.74-1.83,1.03-.73.28-1.53.42-2.38.42-1.35,0-2.29-.36-2.82-1.08-.53-.72-.79-1.75-.79-3.09v-9.2c0-.98-.13-1.7-.39-2.17s-.75-.7-1.47-.7c-.45,0-.96.12-1.54.37-.58.25-1.17.64-1.75,1.18-.58.54-1.09,1.26-1.52,2.17v-5.89c1.01-.99,2.1-1.89,3.29-2.68,1.19-.79,2.55-1.19,4.09-1.19,1.31,0,2.41.33,3.31.98.9.66,1.58,1.56,2.04,2.71.46,1.15.69,2.48.69,3.99v8.85Z"/>
    <path class="cls-3" d="m114.93,221.51v-4.64h8.14v-.5c0-.66-.09-1.27-.28-1.82-.19-.55-.49-1-.9-1.34-.41-.34-.96-.51-1.65-.51-1.05,0-1.79.43-2.21,1.29-.42.86-.64,2.2-.64,3.99v2.03c0,.98.09,1.89.26,2.74.17.85.54,1.53,1.1,2.05.56.52,1.42.78,2.57.78.98,0,1.94-.13,2.88-.38.94-.25,1.85-.56,2.71-.92.5.49.91,1.11,1.21,1.86.3.75.5,1.46.6,2.14-1.09.79-2.4,1.4-3.92,1.81s-3.05.63-4.59.63c-1.9,0-3.47-.31-4.71-.94-1.24-.63-2.22-1.47-2.94-2.54-.72-1.06-1.23-2.27-1.52-3.62-.3-1.35-.44-2.73-.44-4.16,0-2.17.33-4.13.98-5.87.66-1.74,1.69-3.13,3.12-4.16s3.28-1.54,5.57-1.54c1.9,0,3.52.4,4.86,1.21,1.34.81,2.36,1.9,3.08,3.27.71,1.38,1.07,2.93,1.07,4.67,0,.96-.05,1.77-.14,2.41-.09.64-.24,1.32-.44,2.04h-13.77Z"/>
    <path class="cls-3" d="m137.83,208.6l8.48-.09c.17.73.26,1.52.26,2.35,0,.37-.02.78-.07,1.22-.04.44-.11.85-.19,1.22l-8.57-.13-6.91.13c-.09-.37-.15-.78-.19-1.22-.04-.44-.06-.85-.06-1.22s.02-.77.06-1.19c.04-.42.11-.81.19-1.17l7,.09Zm-3.28,2.76c-.09-.93-.2-1.87-.35-2.81-.14-.94-.22-1.89-.22-2.87,0-1.44.31-2.72.94-3.85.63-1.13,1.51-2.03,2.64-2.69,1.14-.66,2.45-.99,3.95-.99,1.35,0,2.6.13,3.76.38,1.15.25,2.1.52,2.85.81.03.76-.09,1.58-.37,2.45-.27.87-.63,1.54-1.08,2-.43-.12-.95-.24-1.55-.37-.6-.13-1.2-.19-1.79-.19-.92,0-1.63.25-2.14.73s-.75,1.22-.75,2.2c0,.81.09,1.68.27,2.62.18.94.32,1.82.42,2.62v18.69c-.52.09-1.07.15-1.64.18-.58.04-1.14.05-1.71.05s-1.08-.02-1.64-.05c-.56-.04-1.09-.1-1.6-.18v-18.74Z"/>
    <path class="cls-3" d="m157.17,224.21c0-1.74.4-3.16,1.21-4.26.81-1.1,1.86-1.92,3.16-2.45,1.3-.53,2.69-.8,4.18-.8.65,0,1.46.01,2.45.04.99.03,1.88.12,2.67.28v4.27c-.62-.14-1.36-.23-2.23-.25-.87-.02-1.59-.03-2.17-.03-.96,0-1.66.25-2.07.77-.42.51-.63,1.17-.63,1.98,0,.58.18,1.05.53,1.44.35.38.84.57,1.46.57.86,0,1.74-.31,2.63-.93.89-.62,1.65-1.47,2.27-2.55l.95,4.27c-.56.66-1.2,1.31-1.92,1.95-.72.64-1.56,1.17-2.53,1.59s-2.09.63-3.39.63c-1.48,0-2.71-.33-3.68-.98-.97-.65-1.69-1.48-2.17-2.48-.47-1-.71-2.02-.71-3.05Zm19.58,2.76c-.12.6-.38,1.25-.8,1.94-.42.69-.83,1.2-1.25,1.53-1.27-.03-2.31-.32-3.14-.86-.83-.55-1.46-1.22-1.9-2.02-.44-.8-.72-1.58-.85-2.34v-9.24c0-.89-.23-1.57-.68-2.04s-1.17-.7-2.15-.7c-.92,0-1.93.15-3.02.44s-2.21.61-3.35.94c-.47-.55-.85-1.25-1.11-2.13-.27-.87-.44-1.72-.51-2.56.98-.4,2.06-.74,3.24-1.03,1.18-.28,2.35-.5,3.52-.65,1.17-.15,2.21-.23,3.13-.23,1.27,0,2.48.23,3.65.7,1.17.47,2.13,1.24,2.88,2.31s1.13,2.52,1.13,4.35v8.79c0,.62.1,1.17.3,1.64.2.48.5.86.91,1.14Z"/>
    <path class="cls-3" d="m192.88,208.51c.2.76.3,1.55.3,2.35,0,.4-.02.81-.06,1.22-.04.41-.12.82-.24,1.22l-8.05-.13-7.04.13c-.19-.76-.28-1.58-.28-2.44,0-.78.09-1.56.28-2.35l7.23.11,7.86-.11Zm-11.7-2.4c0-1.51.28-2.57.83-3.16.55-.6,1.49-.9,2.82-.9h2.63l.3.3v20.79c0,.65.15,1.15.44,1.5.29.35.79.53,1.48.53h2.42c.16.47.28,1,.38,1.57s.14,1.11.14,1.63c0,.25,0,.5-.02.78-.01.27-.06.53-.13.76-.79.1-1.71.19-2.74.28-1.04.09-1.99.13-2.85.13-1.96,0-3.4-.49-4.32-1.46s-1.38-2.49-1.38-4.54v-18.2Z"/>
  </g>
  <g>
    <path class="cls-3" d="m12.56,283.88c-.91,0-2.1-.03-3.56-.09-1.46-.06-2.79-.2-3.98-.42v-64.38c1.19-.22,2.52-.36,3.98-.42,1.46-.06,2.65-.09,3.56-.09,1.01,0,2.21.03,3.61.09,1.4.06,2.73.2,3.98.42v18c0,1.32-.02,2.49-.05,3.51-.03,1.02-.05,2.18-.05,3.46v12.44c0,1.26.02,2.4.05,3.44.03,1.04.05,2.21.05,3.53v19.98c-1.26.22-2.58.36-3.98.42-1.4.06-2.6.09-3.61.09Zm-1.6-27.38v-12.63c1.48,0,2.99.02,4.55.05,1.56.03,3.07.05,4.55.05.47,0,.98,0,1.53-.02.55-.02,1.11-.03,1.67-.05.57-.02,1.07-.02,1.51-.02h10.89c.44,0,.94,0,1.51.02.57.02,1.13.03,1.7.05.57.02,1.07.02,1.51.02,1.48,0,2.98-.01,4.52-.05,1.54-.03,3.05-.05,4.52-.05v12.63c-1.48,0-2.99-.02-4.52-.05-1.54-.03-3.05-.05-4.52-.05-.44,0-.94,0-1.51.02s-1.13.03-1.7.05-1.07.02-1.51.02h-10.89c-.44,0-.94,0-1.51-.02s-1.12-.03-1.67-.05c-.55-.02-1.06-.02-1.53-.02-1.48,0-2.99.02-4.55.05s-3.07.05-4.55.05Zm37.04,27.38c-1.07,0-2.3-.03-3.7-.09-1.4-.06-2.74-.2-4.03-.42v-19.98c0-1.32.02-2.5.05-3.53.03-1.04.05-2.18.05-3.44v-12.44c0-1.29-.02-2.44-.05-3.46-.03-1.02-.05-2.19-.05-3.51v-18c1.26-.22,2.58-.36,3.96-.42,1.38-.06,2.58-.09,3.58-.09.91,0,2.1.03,3.56.09,1.46.06,2.8.2,4.03.42v64.38c-1.29.22-2.58.36-3.89.42-1.3.06-2.47.09-3.51.09Z"/>
    <path class="cls-3" d="m108.94,259.85c0,5.03-.83,9.41-2.5,13.15-1.67,3.74-4.11,6.63-7.33,8.67-3.22,2.04-7.2,3.06-11.95,3.06s-8.78-1.03-12.02-3.09c-3.24-2.06-5.67-4.96-7.31-8.7-1.63-3.74-2.45-8.11-2.45-13.1s.82-9.45,2.47-13.17c1.65-3.72,4.09-6.61,7.33-8.67,3.24-2.06,7.23-3.09,11.97-3.09s8.78,1.04,12.02,3.11c3.24,2.07,5.67,4.97,7.31,8.7,1.63,3.72,2.45,8.1,2.45,13.13Zm-28.42,0c0,2.58.15,4.92.45,7.02.3,2.11.93,3.78,1.89,5.02.96,1.24,2.4,1.86,4.31,1.86s3.39-.62,4.34-1.86c.94-1.24,1.56-2.91,1.86-5.02.3-2.1.45-4.45.45-7.02s-.15-4.96-.45-7.07c-.3-2.1-.92-3.78-1.86-5.02-.94-1.24-2.39-1.86-4.34-1.86s-3.35.62-4.31,1.86c-.96,1.24-1.59,2.92-1.89,5.02-.3,2.11-.45,4.46-.45,7.07Z"/>
    <path class="cls-3" d="m123.5,235.67c2.83,0,4.97.97,6.43,2.9,1.46,1.93,2.19,4.53,2.19,7.8v37c-1.04.19-2.21.32-3.51.4s-2.58.12-3.84.12-2.49-.04-3.79-.12-2.51-.21-3.61-.4v-47.04l.66-.66h5.47Zm19.13,19.32c0-2.51-.46-4.2-1.37-5.04-.91-.85-1.87-1.27-2.88-1.27-1.35.03-2.78.57-4.29,1.6-1.51,1.04-2.88,2.3-4.1,3.79-1.23,1.49-2.11,2.98-2.64,4.45v-12.72c1.48-1.67,3.11-3.29,4.9-4.88s3.71-2.89,5.75-3.91c2.04-1.02,4.19-1.53,6.46-1.53,2.73,0,5.07.64,7,1.91,1.93,1.27,3.4,3.02,4.41,5.25,1,2.23,1.51,4.79,1.51,7.68v33.04c-1.04.19-2.21.32-3.51.4-1.3.08-2.58.12-3.84.12s-2.49-.04-3.79-.12-2.51-.21-3.61-.4v-28.37Zm25.17-.09c0-2.51-.48-4.18-1.44-5-.96-.82-1.94-1.22-2.95-1.22-1.23,0-2.56.53-4.01,1.58-1.45,1.05-2.81,2.37-4.1,3.96-1.29,1.59-2.31,3.2-3.06,4.83v-13.62c1.41-1.7,3.08-3.31,5-4.83,1.92-1.52,3.97-2.76,6.17-3.7,2.2-.94,4.4-1.41,6.6-1.41,2.76,0,5.07.65,6.93,1.96,1.85,1.3,3.25,3.09,4.19,5.35.94,2.26,1.41,4.84,1.41,7.73v21.07c0,1.82.17,3.54.52,5.16.34,1.62.96,3.02,1.84,4.22-1.07.88-2.4,1.63-4.01,2.24-1.6.61-3.33.92-5.18.92-2.95,0-5.01-.79-6.17-2.36-1.16-1.57-1.74-3.82-1.74-6.74v-20.12Z"/>
    <path class="cls-3" d="m200.23,264.61v-10.13h17.77v-1.08c0-1.45-.21-2.77-.61-3.98s-1.06-2.18-1.96-2.92c-.9-.74-2.1-1.11-3.61-1.11-2.29,0-3.9.94-4.83,2.83-.93,1.88-1.39,4.79-1.39,8.72v4.43c0,2.14.19,4.13.57,5.99.38,1.85,1.18,3.35,2.4,4.48s3.09,1.7,5.61,1.7c2.14,0,4.23-.27,6.29-.82s4.03-1.22,5.92-2c1.1,1.07,1.98,2.42,2.64,4.05.66,1.63,1.1,3.19,1.32,4.67-2.39,1.73-5.24,3.05-8.55,3.96-3.32.91-6.65,1.37-10.02,1.37-4.15,0-7.57-.68-10.27-2.05-2.7-1.37-4.84-3.21-6.41-5.54-1.57-2.32-2.68-4.96-3.32-7.89-.64-2.94-.97-5.96-.97-9.07,0-4.74.71-9.02,2.14-12.82,1.43-3.8,3.7-6.83,6.81-9.07,3.11-2.25,7.16-3.37,12.16-3.37,4.15,0,7.68.88,10.6,2.64,2.92,1.76,5.16,4.14,6.72,7.14,1.56,3,2.33,6.4,2.33,10.2,0,2.11-.1,3.86-.31,5.25-.2,1.4-.53,2.88-.97,4.45h-30.07Z"/>
  </g>
  <g>
    <path class="cls-4" d="m4.44,301.7v6.36H0v-16.56h7.55c3.64,0,5.62,1.91,5.62,4.54,0,2.23-1.13,3.34-2.55,3.9,1.72.66,2.24,2.06,2.24,3.97v.51c0,1.38.05,2.83.19,3.64h-4.38c-.24-.68-.32-1.74-.32-3.64v-.47c0-1.73-.57-2.25-2.33-2.25h-1.58Zm0-3.25h1.92c1.36,0,2.32-.51,2.32-1.92,0-1.3-.87-1.8-2.03-1.8h-2.21v3.71Z"/>
    <path class="cls-4" d="m27.08,301.25h-6.94v3.38h7.73l-.51,3.42h-11.62v-16.56h11.62v3.45h-7.22v2.86h6.94v3.45Z"/>
    <path class="cls-4" d="m43.98,302.56c-.45,3.26-2.55,5.81-7.08,5.81-5.59,0-7.46-3.91-7.46-8.56s2.39-8.61,7.63-8.61,6.71,3.18,6.84,5.73h-4.48c-.24-1.26-.65-2.38-2.43-2.38-2.14,0-2.82,2.2-2.82,5.24s.69,5.22,2.83,5.22c1.8,0,2.27-1.33,2.49-2.46h4.5Z"/>
    <path class="cls-4" d="m57.51,301.25h-6.94v3.38h7.73l-.51,3.42h-11.62v-16.56h11.62v3.45h-7.22v2.86h6.94v3.45Z"/>
    <path class="cls-4" d="m63.78,294.95h-4.27v-3.45h13.1v3.45h-4.25v13.11h-4.58v-13.11Z"/>
    <path class="cls-4" d="m76.87,304.7l-.83,3.35h-4.48l4.63-16.56h6.14l4.85,16.56h-4.75l-.92-3.35h-4.64Zm3.89-3.56c-.67-2.49-1.25-4.88-1.59-6.58h-.07c-.34,1.82-.9,4.22-1.52,6.58h3.18Z"/>
    <path class="cls-4" d="m92.54,303c.17,1.35.96,2.17,2.47,2.17s2-.64,2-1.54c0-1.2-.79-1.74-3.05-2.36-4.12-1.11-5.36-2.69-5.36-5,0-3.34,2.72-5.06,6.18-5.06,4.1,0,6.22,1.97,6.41,5.04h-4.32c-.13-1.04-.61-1.89-2.07-1.89-1.12,0-1.73.52-1.73,1.4,0,1.02.74,1.32,2.95,1.95,4.37,1.24,5.58,2.9,5.58,5.41,0,3.15-2.34,5.23-6.73,5.23-4.09,0-6.5-2.05-6.69-5.36h4.36Z"/>
    <path class="cls-4" d="m109.04,291.5h6.4c5.38,0,7.98,3.13,7.98,7.99,0,5.31-2.88,8.57-8.06,8.57h-6.32v-16.56Zm4.58,13.27h1.51c2.4,0,3.53-1.61,3.53-5.22,0-3.12-.94-4.75-3.48-4.75h-1.56v9.96Z"/>
    <path class="cls-4" d="m137.31,301.25h-6.94v3.38h7.73l-.51,3.42h-11.62v-16.56h11.62v3.45h-7.22v2.86h6.94v3.45Z"/>
    <path class="cls-4" d="m159.44,302.56c-.45,3.26-2.55,5.81-7.08,5.81-5.59,0-7.46-3.91-7.46-8.56s2.39-8.61,7.63-8.61,6.71,3.18,6.84,5.73h-4.48c-.24-1.26-.65-2.38-2.43-2.38-2.13,0-2.82,2.2-2.82,5.24s.69,5.22,2.83,5.22c1.8,0,2.27-1.33,2.49-2.46h4.5Z"/>
    <path class="cls-4" d="m176.85,299.69c0,4.84-2.28,8.68-7.95,8.68s-7.66-3.86-7.66-8.69c0-4.31,2.32-8.47,7.92-8.47s7.69,4,7.69,8.48Zm-10.86-.03c0,3.18.93,5.38,3.08,5.38,2.32,0,3.05-2.02,3.05-5.39,0-2.92-.7-5.1-3.1-5.1-2.2,0-3.02,2.03-3.02,5.11Z"/>
    <path class="cls-4" d="m193.38,302.56c-.45,3.26-2.55,5.81-7.08,5.81-5.59,0-7.46-3.91-7.46-8.56s2.39-8.61,7.63-8.61,6.71,3.18,6.84,5.73h-4.48c-.24-1.26-.65-2.38-2.43-2.38-2.13,0-2.82,2.2-2.82,5.24s.69,5.22,2.83,5.22c1.8,0,2.27-1.33,2.49-2.46h4.5Z"/>
    <path class="cls-4" d="m200.13,291.5v16.56h-4.57v-16.56h4.57Z"/>
    <path class="cls-4" d="m203.38,308.06v-16.56h5.53c3.5,8.38,4.22,10.29,4.42,10.99h.08c-.17-1.94-.23-4.77-.23-7.34v-3.64h4.18v16.56h-5.33c-3.82-9.37-4.37-10.86-4.58-11.48h-.05c.15,2.08.15,4.92.15,7.78v3.7h-4.17Z"/>
    <path class="cls-4" d="m224.43,304.7l-.83,3.35h-4.48l4.63-16.56h6.14l4.85,16.56h-4.75l-.92-3.35h-4.64Zm3.89-3.56c-.67-2.49-1.25-4.88-1.59-6.58h-.07c-.34,1.82-.9,4.22-1.52,6.58h3.18Z"/>
  </g>
  <path class="cls-2" d="m121,103.94l-10.98,13.2-12.63,15.39-18.38,20.72c-5.2,4.91-11.21,5.79-13.87,3.34-2.57-2.37-1.86-7.22-1.71-8.17.71-4.5,3.69-7.21,4.65-8.02,2.37-2.42,4.74-4.83,7.11-7.25,2.56-2.18,5.11-4.37,7.67-6.55,3.99-3.23,8.91-7.27,14.49-11.99,2.88-2.43,10.16-8.6,19.45-16.87,5.01-4.47,10.82-9.73,17.24-15.71l28.92-25.5,10.27-9.08c2.66-2.54,5.91-3.14,7.23-2.04,1.47,1.21,1.46,5.23-1.72,8.58-2.69,3.39-5.39,6.78-8.08,10.17-4.48,5.14-8.96,10.28-13.45,15.42l-17.55,16.79-3.99,3.5s-2.44,2.04-6.29,2.94c-.88-.27-2.6-.68-4.71-.31-1.7.29-2.96.97-3.69,1.43Z"/>
</svg>